# This file uses inches as units for non-parametric coordinates.

mtllib Hammer.mtl
g default
v 14.376055 0.324930 4.709672
v 14.376055 0.641410 5.026151
v 14.059575 0.641410 4.709672
v 19.164785 0.641410 4.709672
v 18.848305 0.641410 5.026151
v 18.848305 0.324930 4.709672
v 14.059575 5.191865 4.709672
v 14.376055 5.191865 5.026151
v 14.376055 5.508346 4.709672
v 18.848305 5.508346 4.709672
v 18.848305 5.191865 5.026151
v 19.164785 5.191865 4.709672
v 14.179581 5.193678 -5.223608
v 14.059575 5.192890 -4.794509
v 14.376291 5.508346 -4.802199
v 14.570045 5.508346 -5.251756
v 18.654315 5.508346 -5.251756
v 18.848069 5.508346 -4.802199
v 19.164785 5.192890 -4.794509
v 19.044779 5.193678 -5.223608
v 14.570045 0.324930 -5.251756
v 14.376291 0.324930 -4.802199
v 14.059575 0.640385 -4.794509
v 14.179581 0.639597 -5.223608
v 19.044779 0.639597 -5.223608
v 19.164785 0.640385 -4.794509
v 18.848069 0.324930 -4.802199
v 18.654315 0.324930 -5.251756
v 16.398710 5.206453 -8.874912
v 16.612180 5.508346 -8.578231
v 16.825650 5.206453 -8.874912
v 16.398710 0.626822 -8.874912
v 16.825650 0.626822 -8.874912
v 16.612180 0.324930 -8.578231
vt 0.390498 0.992129
vt 0.375000 0.992129
vt 0.390498 -0.000000
vt 0.390498 0.015264
vt 0.625000 0.992129
vt 0.609502 0.992129
vt 0.625000 0.755761
vt 0.632871 0.015264
vt 0.375000 0.257871
vt 0.375000 0.494239
vt 0.390498 0.234736
vt 0.609502 0.234736
vt 0.625000 0.257871
vt 0.125000 0.230300
vt 0.125000 0.014884
vt 0.130761 0.015215
vt 0.390509 0.494430
vt 0.609491 0.494430
vt 0.500000 0.500000
vt 0.875000 0.235116
vt 0.869239 0.234785
vt 0.869239 0.015215
vt 0.875000 0.019700
vt 0.380877 0.734823
vt 0.399998 0.750000
vt 0.609491 0.755570
vt 0.600002 0.750000
vt 0.500000 0.750000
vt 0.510454 0.514560
vt 0.510454 0.735440
vt 0.489546 0.735439
vt 0.609502 0.015264
vt 0.390498 0.257871
vt 0.609502 0.257871
vt 0.390509 0.755570
vt 0.367129 0.015264
vt 0.367129 0.234736
vt 0.130761 0.234785
vt 0.399998 0.500000
vt 0.600002 0.500000
vt 0.619123 0.515177
vt 0.619123 0.734823
vt 0.489546 0.514560
vt 0.609502 -0.000000
vt 0.632871 0.234736
vt 0.380877 0.515177
vt 0.625000 0.494239
vt 0.619237 0.500000
vt 0.375000 0.755761
vt 0.380763 0.750000
vn -0.706401 -0.707812 0.000029
vn -0.706401 -0.707811 0.000029
vn -0.705174 -0.708983 -0.008522
vn -0.704309 -0.709749 -0.014329
vn 0.000000 -0.707105 0.707108
vn 0.000000 -0.707105 0.707108
vn 0.000000 -0.707105 0.707108
vn 0.000000 -0.707105 0.707108
vn -0.707106 0.000000 0.707108
vn -0.707106 0.000000 0.707108
vn -0.707106 0.000000 0.707108
vn -0.707106 0.000000 0.707108
vn 0.706402 -0.707811 0.000029
vn 0.706402 -0.707811 0.000029
vn 0.704310 -0.709748 -0.014329
vn 0.705174 -0.708983 -0.008522
vn 0.707106 0.000000 0.707108
vn 0.707106 0.000000 0.707108
vn 0.707106 0.000000 0.707108
vn 0.707106 0.000000 0.707108
vn -0.706401 0.707811 0.000029
vn -0.706401 0.707812 0.000029
vn -0.704309 0.709749 -0.014329
vn -0.705174 0.708983 -0.008522
vn 0.000000 0.707105 0.707108
vn 0.000000 0.707105 0.707108
vn 0.000000 0.707105 0.707108
vn 0.000000 0.707105 0.707108
vn 0.706402 0.707811 0.000029
vn 0.706402 0.707811 0.000029
vn 0.705174 0.708983 -0.008522
vn 0.704310 0.709748 -0.014329
vn -0.600116 0.727934 -0.331622
vn -0.588965 0.728358 -0.350165
vn -0.585310 0.728422 -0.356109
vn -0.585310 0.728422 -0.356110
vn -0.999927 0.000000 -0.012109
vn -0.867468 0.000000 -0.497492
vn -0.867468 0.000000 -0.497492
vn -0.999927 0.000000 -0.012109
vn 0.000000 1.000000 -0.000000
vn 0.000000 1.000000 -0.000000
vn 0.000000 1.000000 -0.000000
vn 0.000000 1.000000 -0.000000
vn 0.588965 0.728358 -0.350165
vn 0.600116 0.727934 -0.331622
vn 0.585310 0.728422 -0.356110
vn 0.585310 0.728422 -0.356110
vn 0.867468 0.000000 -0.497492
vn 0.999927 0.000000 -0.012109
vn 0.999927 0.000000 -0.012109
vn 0.867468 0.000000 -0.497492
vn -0.588965 -0.728358 -0.350165
vn -0.600116 -0.727934 -0.331622
vn -0.585310 -0.728422 -0.356110
vn -0.585310 -0.728422 -0.356109
vn 0.000000 -1.000000 -0.000000
vn 0.000000 -1.000000 -0.000000
vn 0.000000 -1.000000 -0.000000
vn 0.000000 -1.000000 -0.000000
vn 0.600116 -0.727934 -0.331622
vn 0.588965 -0.728358 -0.350165
vn 0.585310 -0.728422 -0.356110
vn 0.585310 -0.728422 -0.356110
vn 0.000000 0.000000 -1.000000
vn 0.000000 0.000000 -1.000000
vn 0.000000 0.000000 -1.000000
vn 0.000000 0.000000 -1.000000
vn 0.000000 0.000000 1.000000
vn 0.000000 0.000000 1.000000
vn 0.000000 0.000000 1.000000
vn 0.000000 0.000000 1.000000
vn 0.000000 1.000000 -0.000000
vn 0.000000 1.000000 -0.000000
vn 0.000000 -1.000000 -0.000000
vn 0.000000 -1.000000 -0.000000
vn 1.000000 0.000000 0.000000
vn 1.000000 0.000000 0.000000
vn -1.000000 0.000000 0.000000
vn -1.000000 0.000000 0.000000
vn 0.000000 1.000000 0.000000
vn 0.854552 0.000000 -0.519365
vn 0.854552 0.000000 -0.519365
vn 0.000000 -1.000000 0.000000
vn -0.854552 0.000000 -0.519365
vn -0.854552 0.000000 -0.519365
vn -0.577350 -0.577349 0.577352
vn -0.577350 -0.577349 0.577352
vn -0.577350 -0.577349 0.577352
vn 0.577350 -0.577349 0.577352
vn 0.577350 -0.577349 0.577352
vn 0.577350 -0.577349 0.577352
vn -0.577350 0.577349 0.577352
vn -0.577350 0.577349 0.577352
vn -0.577350 0.577349 0.577352
vn 0.577350 0.577349 0.577352
vn 0.577350 0.577349 0.577352
vn 0.577350 0.577349 0.577352
vn 0.000000 0.700925 -0.713235
vn 0.000000 0.700925 -0.713235
vn 0.000000 0.700925 -0.713235
vn 0.000000 -0.700925 -0.713235
vn 0.000000 -0.700925 -0.713235
vn 0.000000 -0.700925 -0.713235
s 1
g HammerHead
usemtl initialShadingGroup
f 1/1/1 3/2/2 23/49/3 22/35/4
s off
f 2/4/5 1/3/6 6/44/7 5/32/8
f 3/36/9 2/4/10 8/11/11 7/37/12
s 2
f 4/5/13 6/6/14 27/26/15 26/7/16
s off
f 5/32/17 4/8/18 12/45/19 11/12/20
s 3
f 7/9/21 9/33/22 15/17/23 14/10/24
s off
f 9/33/25 8/11/26 11/12/27 10/34/28
s 4
f 10/34/29 12/13/30 19/47/31 18/18/32
s 3
f 13/46/33 16/39/34 30/19/35 29/43/36
s 5
f 14/38/37 13/14/38 24/15/39 23/16/40
s 6
f 16/39/41 15/17/42 18/18/43 17/40/44
s 4
f 17/40/45 20/41/46 31/29/47 30/19/48
s 7
f 20/20/49 19/21/50 26/22/51 25/23/52
s 1
f 21/25/53 24/24/54 32/31/55 34/28/56
s 8
f 22/35/57 21/25/58 28/27/59 27/26/60
s 2
f 25/42/61 28/27/62 34/28/63 33/30/64
s off
f 29/43/65 31/29/66 33/30/67 32/31/68
f 2/4/69 5/32/70 11/12/71 8/11/72
s 6
f 9/33/73 10/34/74 18/18/43 15/17/42
s 8
f 22/35/57 27/26/60 6/6/75 1/1/76
s 7
f 4/8/77 26/22/51 19/21/50 12/45/78
s 5
f 23/16/40 3/36/79 7/37/80 14/38/37
s 6
f 16/39/41 17/40/44 30/19/81
s 7
f 20/41/49 25/42/52 33/30/82 31/29/83
s 8
f 28/27/59 21/25/58 34/28/84
s 5
f 24/24/39 13/46/38 29/43/85 32/31/86
s off
f 1/3/87 2/4/88 3/36/89
f 4/8/90 5/32/91 6/44/92
f 7/37/93 8/11/94 9/33/95
f 10/34/96 11/12/97 12/45/98
s 3
f 13/46/33 14/10/24 15/17/23 16/39/34
s 4
f 17/40/45 18/18/32 19/47/31 20/48/46
s 1
f 21/25/53 22/35/4 23/49/3 24/50/54
s 2
f 25/42/61 26/7/16 27/26/15 28/27/62
s off
f 29/43/99 30/19/100 31/29/101
f 32/31/102 33/30/103 34/28/104
g default
v 14.059575 4.642270 -0.645751
v 14.059575 4.384548 -1.228291
v 14.059575 3.983137 -1.690597
v 14.059575 3.477329 -1.987416
v 14.059575 2.916638 -2.089693
v 14.059575 2.355946 -1.987416
v 14.059575 1.850138 -1.690597
v 14.059575 1.448727 -1.228290
v 14.059575 1.191005 -0.645750
v 14.059575 1.102201 0.000000
v 14.059575 1.191005 0.645750
v 14.059575 1.448727 1.228290
v 14.059575 1.850139 1.690596
v 14.059575 2.355946 1.987415
v 14.059575 2.916637 2.089692
v 14.059575 3.477329 1.987415
v 14.059575 3.983136 1.690596
v 14.059575 4.384547 1.228290
v 14.059575 4.642269 0.645750
v 14.059575 4.731073 0.000000
v 14.059575 2.916638 0.000000
v -17.301418 2.916638 0.000000
v -17.095043 4.904054 -0.645751
v -17.301418 4.705332 -0.581182
v -17.095043 4.607235 -1.228291
v -17.301418 4.438193 -1.105474
v -17.095043 4.144928 -1.690597
v -17.301418 4.022112 -1.521555
v -17.095043 3.562388 -1.987416
v -17.301418 3.497820 -1.788695
v -17.095043 2.916638 -2.089693
v -17.301418 2.916638 -1.880745
v -17.095043 2.270887 -1.987416
v -17.301418 2.335455 -1.788695
v -17.095043 1.688347 -1.690597
v -17.301418 1.811163 -1.521555
v -17.095043 1.226041 -1.228290
v -17.301418 1.395083 -1.105474
v -17.095043 0.929222 -0.645750
v -17.301418 1.127943 -0.581182
v -17.095043 0.826945 0.000000
v -17.301418 1.035893 0.000000
v -17.095043 0.929222 0.645750
v -17.301418 1.127943 0.581182
v -17.095043 1.226041 1.228290
v -17.301418 1.395083 1.105474
v -17.095043 1.688347 1.690596
v -17.301418 1.811164 1.521554
v -17.095043 2.270887 1.987415
v -17.301418 2.335456 1.788694
v -17.095043 2.916637 2.089692
v -17.301418 2.916637 1.880744
v -17.095043 3.562388 1.987415
v -17.301418 3.497819 1.788694
v -17.095043 4.144927 1.690596
v -17.301418 4.022111 1.521554
v -17.095043 4.607233 1.228290
v -17.301418 4.438192 1.105474
v -17.095043 4.904052 0.645750
v -17.301418 4.705331 0.581182
v -17.095043 5.006329 0.000000
v -17.301418 4.797382 -0.000000
vt 0.648603 0.107966
vt 0.626409 0.064408
vt 0.591842 0.029841
vt 0.548284 0.007647
vt 0.500000 -0.000000
vt 0.451716 0.007647
vt 0.408159 0.029841
vt 0.373591 0.064409
vt 0.351397 0.107966
vt 0.343750 0.156250
vt 0.351397 0.204534
vt 0.373591 0.248091
vt 0.408159 0.282659
vt 0.451716 0.304853
vt 0.500000 0.312500
vt 0.548284 0.304853
vt 0.591841 0.282659
vt 0.626409 0.248091
vt 0.648603 0.204534
vt 0.656250 0.156250
vt 0.500000 0.150000
vt 0.625000 0.685966
vt 0.624375 0.688440
vt 0.613125 0.688440
vt 0.375625 0.688440
vt 0.386875 0.688440
vt 0.388125 0.688440
vt 0.399375 0.688440
vt 0.400625 0.688440
vt 0.411875 0.688440
vt 0.413125 0.688440
vt 0.424375 0.688440
vt 0.425625 0.688440
vt 0.436875 0.688440
vt 0.438125 0.688440
vt 0.449375 0.688440
vt 0.450625 0.688440
vt 0.461875 0.688440
vt 0.463125 0.688440
vt 0.474375 0.688440
vt 0.475625 0.688440
vt 0.486875 0.688440
vt 0.488125 0.688440
vt 0.499375 0.688440
vt 0.500625 0.688440
vt 0.511875 0.688440
vt 0.513125 0.688440
vt 0.524375 0.688440
vt 0.525625 0.688440
vt 0.536875 0.688440
vt 0.538125 0.688440
vt 0.549375 0.688440
vt 0.550625 0.688440
vt 0.561875 0.688440
vt 0.563125 0.688440
vt 0.574375 0.688440
vt 0.575625 0.688440
vt 0.586875 0.688440
vt 0.588125 0.688440
vt 0.599375 0.688440
vt 0.600625 0.688440
vt 0.611875 0.688440
vt 0.375000 0.312500
vt 0.387500 0.312500
vt 0.375000 0.685966
vt 0.400000 0.312500
vt 0.387500 0.685966
vt 0.412500 0.312500
vt 0.400000 0.685966
vt 0.425000 0.312500
vt 0.412500 0.685966
vt 0.437500 0.312500
vt 0.425000 0.685966
vt 0.450000 0.312500
vt 0.437500 0.685966
vt 0.462500 0.312500
vt 0.450000 0.685966
vt 0.475000 0.312500
vt 0.462500 0.685966
vt 0.487500 0.312500
vt 0.475000 0.685966
vt 0.500000 0.312500
vt 0.487500 0.685966
vt 0.512500 0.312500
vt 0.500000 0.685966
vt 0.525000 0.312500
vt 0.512500 0.685966
vt 0.537500 0.312500
vt 0.525000 0.685966
vt 0.550000 0.312500
vt 0.537500 0.685966
vt 0.562500 0.312500
vt 0.550000 0.685966
vt 0.575000 0.312500
vt 0.562500 0.685966
vt 0.587500 0.312500
vt 0.575000 0.685966
vt 0.600000 0.312500
vt 0.587500 0.685966
vt 0.612500 0.312500
vt 0.600000 0.685966
vt 0.625000 0.312500
vt 0.612500 0.685966
vt 0.613769 0.925783
vt 0.582658 0.956894
vt 0.543456 0.976869
vt 0.500000 0.983752
vt 0.456544 0.976869
vt 0.417342 0.956894
vt 0.386231 0.925783
vt 0.366256 0.886581
vt 0.359374 0.843125
vt 0.366256 0.799669
vt 0.386231 0.760467
vt 0.417342 0.729356
vt 0.456544 0.709381
vt 0.500000 0.702498
vt 0.543456 0.709381
vt 0.582658 0.729356
vt 0.613769 0.760467
vt 0.633744 0.799669
vt 0.640627 0.843125
vt 0.633744 0.886581
vt 0.500000 0.837500
vn 1.000000 -0.000000 0.000001
vn 1.000000 -0.000000 0.000000
vn 1.000000 -0.000000 0.000000
vn 1.000000 -0.000000 0.000001
vn 1.000000 -0.000000 0.000001
vn 1.000000 -0.000000 0.000001
vn 1.000000 -0.000000 0.000000
vn 1.000000 -0.000000 0.000000
vn 1.000000 -0.000000 0.000000
vn 1.000000 -0.000000 0.000000
vn 1.000000 -0.000000 0.000000
vn 1.000000 -0.000000 0.000002
vn 1.000000 -0.000000 0.000001
vn 1.000000 -0.000000 -0.000002
vn 1.000000 -0.000000 -0.000000
vn 1.000000 -0.000000 0.000001
vn 1.000000 -0.000000 0.000001
vn 1.000000 -0.000000 0.000000
vn 1.000000 -0.000000 0.000000
vn 1.000000 -0.000000 0.000000
vn 1.000000 -0.000000 0.000000
vn -0.711472 0.668321 -0.217150
vn -0.711472 0.668321 -0.217151
vn -0.711473 0.702714 0.000001
vn -0.711472 0.702714 0.000001
vn -0.711473 0.568507 -0.413045
vn -0.711473 0.568507 -0.413045
vn -0.711473 0.413045 -0.568507
vn -0.711473 0.413045 -0.568507
vn -0.711473 0.217151 -0.668320
vn -0.711473 0.217151 -0.668320
vn -0.711473 -0.000000 -0.702714
vn -0.711473 -0.000000 -0.702714
vn -0.711473 -0.217151 -0.668320
vn -0.711473 -0.217151 -0.668320
vn -0.711473 -0.413045 -0.568507
vn -0.711473 -0.413045 -0.568507
vn -0.711472 -0.568507 -0.413046
vn -0.711472 -0.568507 -0.413046
vn -0.711473 -0.668320 -0.217150
vn -0.711473 -0.668320 -0.217150
vn -0.711473 -0.702713 0.000000
vn -0.711473 -0.702713 0.000000
vn -0.711473 -0.668320 0.217150
vn -0.711473 -0.668320 0.217150
vn -0.711473 -0.568507 0.413046
vn -0.711472 -0.568507 0.413046
vn -0.711472 -0.413045 0.568508
vn -0.711472 -0.413045 0.568508
vn -0.711472 -0.217151 0.668321
vn -0.711472 -0.217151 0.668321
vn -0.711472 0.000000 0.702715
vn -0.711472 0.000000 0.702715
vn -0.711472 0.217151 0.668321
vn -0.711472 0.217151 0.668321
vn -0.711473 0.413045 0.568507
vn -0.711473 0.413045 0.568507
vn -0.711472 0.568507 0.413045
vn -0.711472 0.568507 0.413045
vn -0.711473 0.668320 0.217151
vn -0.711473 0.668320 0.217151
vn 0.007856 0.956395 -0.291971
vn 0.005823 0.825847 -0.563864
vn 0.005871 0.829139 -0.559012
vn 0.007874 0.957398 -0.288664
vn 0.003233 0.611537 -0.791209
vn 0.003284 0.616458 -0.787381
vn 0.001073 0.326621 -0.945155
vn 0.001093 0.330457 -0.943821
vn 0.000231 -0.000000 -1.000000
vn 0.000231 -0.000000 -1.000000
vn 0.001073 -0.326621 -0.945155
vn 0.001093 -0.330457 -0.943820
vn 0.003233 -0.611537 -0.791209
vn 0.003284 -0.616458 -0.787381
vn 0.005823 -0.825847 -0.563864
vn 0.005871 -0.829139 -0.559012
vn 0.007856 -0.956395 -0.291972
vn 0.007874 -0.957398 -0.288664
vn 0.008619 -0.999963 -0.000000
vn 0.008619 -0.999963 -0.000000
vn 0.007856 -0.956395 0.291972
vn 0.007874 -0.957398 0.288664
vn 0.005823 -0.825847 0.563864
vn 0.005871 -0.829139 0.559012
vn 0.003233 -0.611537 0.791209
vn 0.003284 -0.616458 0.787381
vn 0.001073 -0.326621 0.945155
vn 0.001093 -0.330457 0.943820
vn 0.000231 0.000000 1.000000
vn 0.000231 0.000000 1.000000
vn 0.001073 0.326621 0.945155
vn 0.001093 0.330457 0.943820
vn 0.003233 0.611537 0.791209
vn 0.003284 0.616458 0.787381
vn 0.005823 0.825847 0.563864
vn 0.005871 0.829139 0.559012
vn 0.007856 0.956395 0.291972
vn 0.007874 0.957398 0.288665
vn 0.008619 0.999963 0.000001
vn 0.008619 0.999963 0.000001
vn -1.000000 0.000000 0.000000
vn -1.000000 0.000000 0.000000
vn -1.000000 0.000000 -0.000000
vn -1.000000 0.000000 0.000000
vn -1.000000 0.000000 0.000000
vn -1.000000 0.000000 0.000000
vn -1.000000 0.000000 0.000000
vn -1.000000 0.000000 0.000001
vn -1.000000 0.000000 -0.000001
vn -1.000000 0.000000 -0.000002
vn -1.000000 0.000000 0.000000
vn -1.000000 0.000000 0.000002
vn -1.000000 0.000000 0.000002
vn -1.000000 0.000000 0.000000
vn -1.000000 0.000000 0.000000
vn -1.000000 0.000000 -0.000001
vn -1.000000 0.000000 -0.000000
vn -1.000000 0.000000 -0.000001
vn -1.000000 0.000000 -0.000001
vn -1.000000 0.000000 0.000000
vn -1.000000 0.000000 0.000000
s 1
g HammerHead HammerHandle
usemtl initialShadingGroup
f 36/52/105 35/51/106 55/71/107
f 37/53/108 36/52/105 55/71/107
f 38/54/109 37/53/108 55/71/107
f 39/55/110 38/54/109 55/71/107
f 40/56/111 39/55/110 55/71/107
f 41/57/112 40/56/111 55/71/107
f 42/58/113 41/57/112 55/71/107
f 43/59/114 42/58/113 55/71/107
f 44/60/115 43/59/114 55/71/107
f 45/61/116 44/60/115 55/71/107
f 46/62/117 45/61/116 55/71/107
f 47/63/118 46/62/117 55/71/107
f 48/64/119 47/63/118 55/71/107
f 49/65/120 48/64/119 55/71/107
f 50/66/121 49/65/120 55/71/107
f 51/67/122 50/66/121 55/71/107
f 52/68/123 51/67/122 55/71/107
f 53/69/124 52/68/123 55/71/107
f 54/70/125 53/69/124 55/71/107
f 35/51/106 54/70/125 55/71/107
s 2
f 57/72/126 58/73/127 96/74/128 95/153/129
f 58/75/127 57/115/126 59/117/130 60/76/131
f 60/77/131 59/117/130 61/119/132 62/78/133
f 62/79/133 61/119/132 63/121/134 64/80/135
f 64/81/135 63/121/134 65/123/136 66/82/137
f 66/83/137 65/123/136 67/125/138 68/84/139
f 68/85/139 67/125/138 69/127/140 70/86/141
f 70/87/141 69/127/140 71/129/142 72/88/143
f 72/89/143 71/129/142 73/131/144 74/90/145
f 74/91/145 73/131/144 75/133/146 76/92/147
f 76/93/147 75/133/146 77/135/148 78/94/149
f 78/95/149 77/135/148 79/137/150 80/96/151
f 80/97/151 79/137/150 81/139/152 82/98/153
f 82/99/153 81/139/152 83/141/154 84/100/155
f 84/101/155 83/141/154 85/143/156 86/102/157
f 86/103/157 85/143/156 87/145/158 88/104/159
f 88/105/159 87/145/158 89/147/160 90/106/161
f 90/107/161 89/147/160 91/149/162 92/108/163
f 92/109/163 91/149/162 93/151/164 94/110/165
f 94/111/165 93/151/164 95/153/129 96/112/128
s 3
f 35/113/166 36/114/167 59/117/168 57/115/169
f 36/114/167 37/116/170 61/119/171 59/117/168
f 37/116/170 38/118/172 63/121/173 61/119/171
f 38/118/172 39/120/174 65/123/175 63/121/173
f 39/120/174 40/122/176 67/125/177 65/123/175
f 40/122/176 41/124/178 69/127/179 67/125/177
f 41/124/178 42/126/180 71/129/181 69/127/179
f 42/126/180 43/128/182 73/131/183 71/129/181
f 43/128/182 44/130/184 75/133/185 73/131/183
f 44/130/184 45/132/186 77/135/187 75/133/185
f 45/132/186 46/134/188 79/137/189 77/135/187
f 46/134/188 47/136/190 81/139/191 79/137/189
f 47/136/190 48/138/192 83/141/193 81/139/191
f 48/138/192 49/140/194 85/143/195 83/141/193
f 49/140/194 50/142/196 87/145/197 85/143/195
f 50/142/196 51/144/198 89/147/199 87/145/197
f 51/144/198 52/146/200 91/149/201 89/147/199
f 52/146/200 53/148/202 93/151/203 91/149/201
f 53/148/202 54/150/204 95/153/205 93/151/203
f 54/150/204 35/152/166 57/72/169 95/153/205
s 4
f 58/173/206 60/154/207 56/174/208
f 60/154/207 62/155/209 56/174/208
f 62/155/209 64/156/210 56/174/208
f 64/156/210 66/157/211 56/174/208
f 66/157/211 68/158/212 56/174/208
f 68/158/212 70/159/213 56/174/208
f 70/159/213 72/160/214 56/174/208
f 72/160/214 74/161/215 56/174/208
f 74/161/215 76/162/216 56/174/208
f 76/162/216 78/163/217 56/174/208
f 78/163/217 80/164/218 56/174/208
f 80/164/218 82/165/219 56/174/208
f 82/165/219 84/166/220 56/174/208
f 84/166/220 86/167/221 56/174/208
f 86/167/221 88/168/222 56/174/208
f 88/168/222 90/169/223 56/174/208
f 90/169/223 92/170/224 56/174/208
f 92/170/224 94/171/225 56/174/208
f 94/171/225 96/172/226 56/174/208
f 96/172/226 58/173/206 56/174/208
